<mxfile host="Electron" modified="2024-04-19T18:25:14.478Z" agent="Mozilla/5.0 (Windows NT 10.0; Win64; x64) AppleWebKit/537.36 (KHTML, like Gecko) draw.io/21.5.1 Chrome/112.0.5615.204 Electron/24.6.0 Safari/537.36" etag="9enk0njkRmVpAVgZwgX-" version="21.5.1" type="device">
  <diagram id="tKf8XaDg9jeE4zYhGg8-" name="Setup">
    <mxGraphModel dx="1195" dy="697" grid="1" gridSize="10" guides="1" tooltips="1" connect="1" arrows="1" fold="1" page="1" pageScale="1" pageWidth="850" pageHeight="1100" math="0" shadow="0">
      <root>
        <mxCell id="0" />
        <mxCell id="1" parent="0" />
        <mxCell id="Slde9tUgmKoTj4hSh21i-1" value="" style="rounded=0;whiteSpace=wrap;html=1;" parent="1" vertex="1">
          <mxGeometry x="10" y="10" width="760" height="580" as="geometry" />
        </mxCell>
        <mxCell id="44-xXmvqAvaM7QKxlZ_v-1" value="PodApi" style="swimlane;whiteSpace=wrap;html=1;fillColor=#FFB366;swimlaneFillColor=#FFE6CC;" parent="1" vertex="1">
          <mxGeometry x="30" y="30" width="170" height="430" as="geometry">
            <mxRectangle x="100" y="250" width="80" height="30" as="alternateBounds" />
          </mxGeometry>
        </mxCell>
        <mxCell id="44-xXmvqAvaM7QKxlZ_v-3" value="Devices" style="swimlane;whiteSpace=wrap;html=1;fillColor=#FF33FF;swimlaneFillColor=#FFCCFF;" parent="44-xXmvqAvaM7QKxlZ_v-1" vertex="1">
          <mxGeometry x="20" y="260" width="120" height="40" as="geometry">
            <mxRectangle x="20" y="100" width="90" height="30" as="alternateBounds" />
          </mxGeometry>
        </mxCell>
        <mxCell id="44-xXmvqAvaM7QKxlZ_v-4" value="Packets" style="swimlane;whiteSpace=wrap;html=1;fillColor=#66FF66;swimlaneFillColor=#CCFFCC;" parent="44-xXmvqAvaM7QKxlZ_v-1" vertex="1">
          <mxGeometry x="20" y="200" width="120" height="40" as="geometry">
            <mxRectangle x="20" y="160" width="90" height="30" as="alternateBounds" />
          </mxGeometry>
        </mxCell>
        <mxCell id="GcOCYpmFMNabENArMYts-39" value="Stream" style="swimlane;whiteSpace=wrap;html=1;fillColor=#66FFFF;swimlaneFillColor=#CCFFFF;gradientColor=none;" parent="44-xXmvqAvaM7QKxlZ_v-1" vertex="1">
          <mxGeometry x="20" y="340" width="120" height="40" as="geometry">
            <mxRectangle x="20" y="160" width="90" height="30" as="alternateBounds" />
          </mxGeometry>
        </mxCell>
        <mxCell id="-ZBPmyoN-2S2QFg2cxVi-8" value="Commands" style="swimlane;whiteSpace=wrap;html=1;fillColor=#FF6666;swimlaneFillColor=#FFCCCC;" parent="44-xXmvqAvaM7QKxlZ_v-1" vertex="1">
          <mxGeometry x="20" y="40" width="120" height="40" as="geometry">
            <mxRectangle x="20" y="160" width="90" height="30" as="alternateBounds" />
          </mxGeometry>
        </mxCell>
        <mxCell id="44-xXmvqAvaM7QKxlZ_v-2" value="Parameters" style="swimlane;whiteSpace=wrap;html=1;fillColor=#FFFF66;swimlaneFillColor=#FFFFCC;" parent="44-xXmvqAvaM7QKxlZ_v-1" vertex="1">
          <mxGeometry x="20" y="140" width="120" height="40" as="geometry">
            <mxRectangle x="20" y="40" width="110" height="30" as="alternateBounds" />
          </mxGeometry>
        </mxCell>
        <mxCell id="Slde9tUgmKoTj4hSh21i-2" value="&lt;b&gt;Legend&lt;/b&gt;" style="swimlane;whiteSpace=wrap;html=1;gradientColor=none;dashed=1;dashPattern=1 4;fontStyle=0" parent="1" vertex="1">
          <mxGeometry x="275" y="470" width="300" height="110" as="geometry" />
        </mxCell>
        <mxCell id="Slde9tUgmKoTj4hSh21i-3" value="Inheritance" style="text;html=1;strokeColor=none;fillColor=none;align=left;verticalAlign=middle;whiteSpace=wrap;rounded=0;fontStyle=0" parent="Slde9tUgmKoTj4hSh21i-2" vertex="1">
          <mxGeometry x="70" y="35" width="80" height="20" as="geometry" />
        </mxCell>
        <mxCell id="Slde9tUgmKoTj4hSh21i-4" value="" style="endArrow=block;html=1;endFill=0;strokeWidth=2;fontStyle=0" parent="Slde9tUgmKoTj4hSh21i-2" edge="1">
          <mxGeometry width="50" height="50" relative="1" as="geometry">
            <mxPoint x="60" y="45" as="sourcePoint" />
            <mxPoint x="10" y="45" as="targetPoint" />
          </mxGeometry>
        </mxCell>
        <mxCell id="Slde9tUgmKoTj4hSh21i-5" value="Association" style="text;html=1;strokeColor=none;fillColor=none;align=left;verticalAlign=middle;whiteSpace=wrap;rounded=0;fontStyle=0" parent="Slde9tUgmKoTj4hSh21i-2" vertex="1">
          <mxGeometry x="70" y="55" width="80" height="20" as="geometry" />
        </mxCell>
        <mxCell id="Slde9tUgmKoTj4hSh21i-10" value="Package" style="swimlane;whiteSpace=wrap;html=1;fillColor=#B3B3B3;swimlaneFillColor=#E6E6E6;" parent="Slde9tUgmKoTj4hSh21i-2" vertex="1">
          <mxGeometry x="160" y="30" width="120" height="70" as="geometry" />
        </mxCell>
        <mxCell id="Slde9tUgmKoTj4hSh21i-9" value="Class" style="rounded=0;whiteSpace=wrap;html=1;" parent="Slde9tUgmKoTj4hSh21i-10" vertex="1">
          <mxGeometry x="20" y="30" width="80" height="30" as="geometry" />
        </mxCell>
        <mxCell id="Slde9tUgmKoTj4hSh21i-11" value="" style="endArrow=open;html=1;endFill=0;dashed=1;fontStyle=0" parent="Slde9tUgmKoTj4hSh21i-2" edge="1">
          <mxGeometry width="50" height="50" relative="1" as="geometry">
            <mxPoint x="60" y="84.71" as="sourcePoint" />
            <mxPoint x="10" y="84.71" as="targetPoint" />
          </mxGeometry>
        </mxCell>
        <mxCell id="Slde9tUgmKoTj4hSh21i-12" value="Dependency" style="text;html=1;strokeColor=none;fillColor=none;align=left;verticalAlign=middle;whiteSpace=wrap;rounded=0;fontStyle=0" parent="Slde9tUgmKoTj4hSh21i-2" vertex="1">
          <mxGeometry x="70" y="75" width="80" height="20" as="geometry" />
        </mxCell>
        <mxCell id="GcOCYpmFMNabENArMYts-40" value="" style="endArrow=async;html=1;endFill=1;fontStyle=0" parent="Slde9tUgmKoTj4hSh21i-2" edge="1">
          <mxGeometry width="50" height="50" relative="1" as="geometry">
            <mxPoint x="60" y="64.70999999999998" as="sourcePoint" />
            <mxPoint x="10" y="64.95999999999998" as="targetPoint" />
          </mxGeometry>
        </mxCell>
        <mxCell id="GcOCYpmFMNabENArMYts-41" value="*" style="edgeLabel;html=1;align=center;verticalAlign=middle;resizable=0;points=[];fontStyle=0" parent="GcOCYpmFMNabENArMYts-40" vertex="1" connectable="0">
          <mxGeometry x="0.6272" relative="1" as="geometry">
            <mxPoint x="6" as="offset" />
          </mxGeometry>
        </mxCell>
        <mxCell id="GcOCYpmFMNabENArMYts-42" value="*&lt;br&gt;" style="edgeLabel;html=1;align=center;verticalAlign=middle;resizable=0;points=[];fontStyle=0" parent="GcOCYpmFMNabENArMYts-40" vertex="1" connectable="0">
          <mxGeometry x="-0.7057" relative="1" as="geometry">
            <mxPoint x="-3" as="offset" />
          </mxGeometry>
        </mxCell>
        <mxCell id="Slde9tUgmKoTj4hSh21i-13" value="v1.6.0" style="text;html=1;strokeColor=none;fillColor=none;align=center;verticalAlign=middle;whiteSpace=wrap;rounded=0;fontStyle=0" parent="1" vertex="1">
          <mxGeometry x="710" y="560" width="60" height="30" as="geometry" />
        </mxCell>
        <mxCell id="R2ghkeG9O-_2AuDWkGvL-6" value="Setup" style="swimlane;whiteSpace=wrap;html=1;fillColor=#B266FF;swimlaneFillColor=#E5CCFF;" parent="1" vertex="1">
          <mxGeometry x="210" y="30" width="540" height="430" as="geometry" />
        </mxCell>
        <mxCell id="R2ghkeG9O-_2AuDWkGvL-4" value="SetupOneDevice" style="swimlane;whiteSpace=wrap;html=1;fillColor=#B3FF66;swimlaneFillColor=#E6FFCC;" parent="R2ghkeG9O-_2AuDWkGvL-6" vertex="1">
          <mxGeometry x="15" y="40" width="305" height="380" as="geometry" />
        </mxCell>
        <mxCell id="x58oY4TgvYuZlQ18G-Yt-39" value="Setup8401HR" style="rounded=0;whiteSpace=wrap;html=1;fontStyle=0;fillColor=#E6E6E6;" parent="R2ghkeG9O-_2AuDWkGvL-4" vertex="1">
          <mxGeometry x="155" y="260" width="120" height="40" as="geometry" />
        </mxCell>
        <mxCell id="x58oY4TgvYuZlQ18G-Yt-43" value="&lt;span&gt;Setup8480SC&lt;/span&gt;" style="rounded=0;whiteSpace=wrap;html=1;fontStyle=0;fillColor=#E6E6E6;" parent="R2ghkeG9O-_2AuDWkGvL-4" vertex="1">
          <mxGeometry x="155" y="90" width="120" height="40" as="geometry" />
        </mxCell>
        <mxCell id="x58oY4TgvYuZlQ18G-Yt-41" value="SetupInterface" style="rounded=0;whiteSpace=wrap;html=1;fontStyle=0" parent="R2ghkeG9O-_2AuDWkGvL-4" vertex="1">
          <mxGeometry x="65" y="40" width="120" height="40" as="geometry" />
        </mxCell>
        <mxCell id="x58oY4TgvYuZlQ18G-Yt-42" value="Setup8229" style="rounded=0;whiteSpace=wrap;html=1;fontStyle=0;fillColor=#E6E6E6;" parent="R2ghkeG9O-_2AuDWkGvL-4" vertex="1">
          <mxGeometry x="155" y="150" width="120" height="40" as="geometry" />
        </mxCell>
        <mxCell id="x58oY4TgvYuZlQ18G-Yt-35" value="Setup8206HR" style="rounded=0;whiteSpace=wrap;html=1;fontStyle=0;fillColor=#E6E6E6;" parent="R2ghkeG9O-_2AuDWkGvL-4" vertex="1">
          <mxGeometry x="155" y="205" width="120" height="40" as="geometry" />
        </mxCell>
        <mxCell id="x58oY4TgvYuZlQ18G-Yt-4" value="" style="endArrow=block;html=1;endFill=0;strokeWidth=2;fontStyle=0" parent="R2ghkeG9O-_2AuDWkGvL-4" source="x58oY4TgvYuZlQ18G-Yt-39" target="x58oY4TgvYuZlQ18G-Yt-41" edge="1">
          <mxGeometry width="50" height="50" relative="1" as="geometry">
            <mxPoint x="155" y="275" as="sourcePoint" />
            <mxPoint x="125" y="245" as="targetPoint" />
            <Array as="points">
              <mxPoint x="125" y="280" />
            </Array>
          </mxGeometry>
        </mxCell>
        <mxCell id="bSlkkaULo5ZqBv0GWyKj-1" value="Setup8274D" style="rounded=0;whiteSpace=wrap;html=1;fontStyle=0;fillColor=#E6E6E6;" vertex="1" parent="R2ghkeG9O-_2AuDWkGvL-4">
          <mxGeometry x="155" y="320" width="120" height="40" as="geometry" />
        </mxCell>
        <mxCell id="bSlkkaULo5ZqBv0GWyKj-2" value="" style="endArrow=block;html=1;endFill=0;strokeWidth=2;fontStyle=0;exitX=0;exitY=0.5;exitDx=0;exitDy=0;rounded=1;" edge="1" parent="R2ghkeG9O-_2AuDWkGvL-4" source="bSlkkaULo5ZqBv0GWyKj-1" target="x58oY4TgvYuZlQ18G-Yt-41">
          <mxGeometry width="50" height="50" relative="1" as="geometry">
            <mxPoint x="135" y="260" as="sourcePoint" />
            <mxPoint x="135" y="90" as="targetPoint" />
            <Array as="points">
              <mxPoint x="125" y="340" />
            </Array>
          </mxGeometry>
        </mxCell>
        <mxCell id="bSlkkaULo5ZqBv0GWyKj-12" value="" style="endArrow=block;html=1;endFill=0;strokeWidth=2;fontStyle=0" edge="1" parent="R2ghkeG9O-_2AuDWkGvL-4" source="x58oY4TgvYuZlQ18G-Yt-35" target="x58oY4TgvYuZlQ18G-Yt-41">
          <mxGeometry width="50" height="50" relative="1" as="geometry">
            <mxPoint x="155" y="220" as="sourcePoint" />
            <mxPoint x="125" y="190" as="targetPoint" />
            <Array as="points">
              <mxPoint x="125" y="225" />
            </Array>
          </mxGeometry>
        </mxCell>
        <mxCell id="bSlkkaULo5ZqBv0GWyKj-13" value="" style="endArrow=block;html=1;endFill=0;strokeWidth=2;fontStyle=0" edge="1" parent="R2ghkeG9O-_2AuDWkGvL-4" source="x58oY4TgvYuZlQ18G-Yt-42" target="x58oY4TgvYuZlQ18G-Yt-41">
          <mxGeometry width="50" height="50" relative="1" as="geometry">
            <mxPoint x="155" y="170" as="sourcePoint" />
            <mxPoint x="125" y="140" as="targetPoint" />
            <Array as="points">
              <mxPoint x="125" y="170" />
            </Array>
          </mxGeometry>
        </mxCell>
        <mxCell id="bSlkkaULo5ZqBv0GWyKj-14" value="" style="endArrow=block;html=1;endFill=0;strokeWidth=2;fontStyle=0" edge="1" parent="R2ghkeG9O-_2AuDWkGvL-4" source="x58oY4TgvYuZlQ18G-Yt-43" target="x58oY4TgvYuZlQ18G-Yt-41">
          <mxGeometry width="50" height="50" relative="1" as="geometry">
            <mxPoint x="155" y="120" as="sourcePoint" />
            <mxPoint x="125" y="90" as="targetPoint" />
            <Array as="points">
              <mxPoint x="125" y="110" />
            </Array>
          </mxGeometry>
        </mxCell>
        <mxCell id="R2ghkeG9O-_2AuDWkGvL-1" value="Inputs" style="swimlane;whiteSpace=wrap;html=1;fillColor=#66FFB3;swimlaneFillColor=#CCFFCC;" parent="R2ghkeG9O-_2AuDWkGvL-6" vertex="1">
          <mxGeometry x="360" y="50" width="160" height="100" as="geometry" />
        </mxCell>
        <mxCell id="x58oY4TgvYuZlQ18G-Yt-40" value="UserInput" style="rounded=0;whiteSpace=wrap;html=1;fontStyle=0" parent="R2ghkeG9O-_2AuDWkGvL-1" vertex="1">
          <mxGeometry x="20" y="40" width="120" height="40" as="geometry" />
        </mxCell>
        <mxCell id="x58oY4TgvYuZlQ18G-Yt-5" value="" style="endArrow=open;html=1;endFill=0;dashed=1;fontStyle=0;exitX=1;exitY=0.5;exitDx=0;exitDy=0;" parent="R2ghkeG9O-_2AuDWkGvL-6" source="x58oY4TgvYuZlQ18G-Yt-41" target="R2ghkeG9O-_2AuDWkGvL-1" edge="1">
          <mxGeometry width="50" height="50" relative="1" as="geometry">
            <mxPoint x="574" y="125.22000000000003" as="sourcePoint" />
            <mxPoint x="425" y="270" as="targetPoint" />
          </mxGeometry>
        </mxCell>
        <mxCell id="3bQQR4EIXgQ4GpRWXqI2-1" value="SetupAllDevices" style="swimlane;whiteSpace=wrap;html=1;fillColor=#66B2FF;swimlaneFillColor=#CCE5FF;" parent="R2ghkeG9O-_2AuDWkGvL-6" vertex="1">
          <mxGeometry x="360" y="180" width="160" height="100" as="geometry" />
        </mxCell>
        <mxCell id="x58oY4TgvYuZlQ18G-Yt-34" value="SetupAll" style="rounded=0;whiteSpace=wrap;html=1;fontStyle=0" parent="3bQQR4EIXgQ4GpRWXqI2-1" vertex="1">
          <mxGeometry x="20" y="40" width="120" height="40" as="geometry" />
        </mxCell>
        <mxCell id="6afBlCEfeBArHvcIuozF-1" value="" style="endArrow=open;html=1;endFill=0;dashed=1;fontStyle=0;" parent="R2ghkeG9O-_2AuDWkGvL-6" source="3bQQR4EIXgQ4GpRWXqI2-1" target="R2ghkeG9O-_2AuDWkGvL-1" edge="1">
          <mxGeometry width="50" height="50" relative="1" as="geometry">
            <mxPoint x="264" y="430" as="sourcePoint" />
            <mxPoint x="455" y="140" as="targetPoint" />
          </mxGeometry>
        </mxCell>
        <mxCell id="x58oY4TgvYuZlQ18G-Yt-52" value="" style="endArrow=async;html=1;endFill=1;fontStyle=0;entryX=1;entryY=0.5;entryDx=0;entryDy=0;exitX=0;exitY=0.5;exitDx=0;exitDy=0;" parent="R2ghkeG9O-_2AuDWkGvL-6" source="3bQQR4EIXgQ4GpRWXqI2-1" target="x58oY4TgvYuZlQ18G-Yt-43" edge="1">
          <mxGeometry width="50" height="50" relative="1" as="geometry">
            <mxPoint x="175" y="250" as="sourcePoint" />
            <mxPoint x="1286" y="136" as="targetPoint" />
            <Array as="points">
              <mxPoint x="340" y="230" />
              <mxPoint x="340" y="150" />
            </Array>
          </mxGeometry>
        </mxCell>
        <mxCell id="x58oY4TgvYuZlQ18G-Yt-53" value="0..*" style="edgeLabel;html=1;align=center;verticalAlign=middle;resizable=0;points=[];fontStyle=0" parent="x58oY4TgvYuZlQ18G-Yt-52" vertex="1" connectable="0">
          <mxGeometry x="0.6272" relative="1" as="geometry">
            <mxPoint x="-11" y="-10" as="offset" />
          </mxGeometry>
        </mxCell>
        <mxCell id="bSlkkaULo5ZqBv0GWyKj-3" value="" style="endArrow=async;html=1;endFill=1;fontStyle=0;entryX=1;entryY=0.5;entryDx=0;entryDy=0;exitX=0;exitY=0.5;exitDx=0;exitDy=0;" edge="1" parent="R2ghkeG9O-_2AuDWkGvL-6" source="3bQQR4EIXgQ4GpRWXqI2-1" target="bSlkkaULo5ZqBv0GWyKj-1">
          <mxGeometry width="50" height="50" relative="1" as="geometry">
            <mxPoint x="385" y="313" as="sourcePoint" />
            <mxPoint x="205" y="318" as="targetPoint" />
            <Array as="points">
              <mxPoint x="340" y="230" />
              <mxPoint x="340" y="380" />
            </Array>
          </mxGeometry>
        </mxCell>
        <mxCell id="bSlkkaULo5ZqBv0GWyKj-4" value="0..*" style="edgeLabel;html=1;align=center;verticalAlign=middle;resizable=0;points=[];fontStyle=0" vertex="1" connectable="0" parent="bSlkkaULo5ZqBv0GWyKj-3">
          <mxGeometry x="0.6272" relative="1" as="geometry">
            <mxPoint x="-24" y="-10" as="offset" />
          </mxGeometry>
        </mxCell>
        <mxCell id="bSlkkaULo5ZqBv0GWyKj-5" value="1" style="edgeLabel;html=1;align=center;verticalAlign=middle;resizable=0;points=[];fontStyle=0" vertex="1" connectable="0" parent="bSlkkaULo5ZqBv0GWyKj-3">
          <mxGeometry x="-0.7057" relative="1" as="geometry">
            <mxPoint x="13" y="-2" as="offset" />
          </mxGeometry>
        </mxCell>
        <mxCell id="bSlkkaULo5ZqBv0GWyKj-22" value="" style="endArrow=async;html=1;endFill=1;fontStyle=0;entryX=0.987;entryY=0.586;entryDx=0;entryDy=0;exitX=0;exitY=0.5;exitDx=0;exitDy=0;entryPerimeter=0;" edge="1" parent="R2ghkeG9O-_2AuDWkGvL-6" source="3bQQR4EIXgQ4GpRWXqI2-1" target="x58oY4TgvYuZlQ18G-Yt-39">
          <mxGeometry width="50" height="50" relative="1" as="geometry">
            <mxPoint x="385" y="225" as="sourcePoint" />
            <mxPoint x="300" y="160" as="targetPoint" />
            <Array as="points">
              <mxPoint x="340" y="230" />
              <mxPoint x="340" y="323" />
            </Array>
          </mxGeometry>
        </mxCell>
        <mxCell id="bSlkkaULo5ZqBv0GWyKj-23" value="0..*" style="edgeLabel;html=1;align=center;verticalAlign=middle;resizable=0;points=[];fontStyle=0" vertex="1" connectable="0" parent="bSlkkaULo5ZqBv0GWyKj-22">
          <mxGeometry x="0.6272" relative="1" as="geometry">
            <mxPoint x="-12" y="-10" as="offset" />
          </mxGeometry>
        </mxCell>
        <mxCell id="bSlkkaULo5ZqBv0GWyKj-24" value="" style="endArrow=async;html=1;endFill=1;fontStyle=0;entryX=1;entryY=0.5;entryDx=0;entryDy=0;exitX=0;exitY=0.5;exitDx=0;exitDy=0;" edge="1" parent="R2ghkeG9O-_2AuDWkGvL-6" source="3bQQR4EIXgQ4GpRWXqI2-1" target="x58oY4TgvYuZlQ18G-Yt-35">
          <mxGeometry width="50" height="50" relative="1" as="geometry">
            <mxPoint x="385" y="225" as="sourcePoint" />
            <mxPoint x="298" y="333" as="targetPoint" />
            <Array as="points">
              <mxPoint x="340" y="230" />
              <mxPoint x="340" y="265" />
            </Array>
          </mxGeometry>
        </mxCell>
        <mxCell id="bSlkkaULo5ZqBv0GWyKj-25" value="0..*" style="edgeLabel;html=1;align=center;verticalAlign=middle;resizable=0;points=[];fontStyle=0" vertex="1" connectable="0" parent="bSlkkaULo5ZqBv0GWyKj-24">
          <mxGeometry x="0.6272" relative="1" as="geometry">
            <mxPoint x="-2" y="-10" as="offset" />
          </mxGeometry>
        </mxCell>
        <mxCell id="bSlkkaULo5ZqBv0GWyKj-26" value="" style="endArrow=async;html=1;endFill=1;fontStyle=0;exitX=0;exitY=0.5;exitDx=0;exitDy=0;entryX=1;entryY=0.5;entryDx=0;entryDy=0;" edge="1" parent="R2ghkeG9O-_2AuDWkGvL-6" source="3bQQR4EIXgQ4GpRWXqI2-1" target="x58oY4TgvYuZlQ18G-Yt-42">
          <mxGeometry width="50" height="50" relative="1" as="geometry">
            <mxPoint x="385" y="225" as="sourcePoint" />
            <mxPoint x="300" y="275" as="targetPoint" />
            <Array as="points">
              <mxPoint x="340" y="230" />
              <mxPoint x="340" y="210" />
            </Array>
          </mxGeometry>
        </mxCell>
        <mxCell id="bSlkkaULo5ZqBv0GWyKj-27" value="0..*" style="edgeLabel;html=1;align=center;verticalAlign=middle;resizable=0;points=[];fontStyle=0" vertex="1" connectable="0" parent="bSlkkaULo5ZqBv0GWyKj-26">
          <mxGeometry x="0.6272" relative="1" as="geometry">
            <mxPoint y="-10" as="offset" />
          </mxGeometry>
        </mxCell>
        <mxCell id="GeI4wZPfEz42wUWC54lK-4" value="" style="endArrow=async;html=1;endFill=1;fontStyle=0;exitX=0.25;exitY=1;exitDx=0;exitDy=0;" parent="1" source="x58oY4TgvYuZlQ18G-Yt-41" edge="1">
          <mxGeometry width="50" height="50" relative="1" as="geometry">
            <mxPoint x="475" y="143" as="sourcePoint" />
            <mxPoint x="170" y="310" as="targetPoint" />
            <Array as="points">
              <mxPoint x="320" y="310" />
            </Array>
          </mxGeometry>
        </mxCell>
        <mxCell id="GeI4wZPfEz42wUWC54lK-5" value="0..*" style="edgeLabel;html=1;align=center;verticalAlign=middle;resizable=0;points=[];fontStyle=0" parent="GeI4wZPfEz42wUWC54lK-4" vertex="1" connectable="0">
          <mxGeometry x="0.6272" relative="1" as="geometry">
            <mxPoint x="-44" y="-10" as="offset" />
          </mxGeometry>
        </mxCell>
        <mxCell id="GeI4wZPfEz42wUWC54lK-6" value="1" style="edgeLabel;html=1;align=center;verticalAlign=middle;resizable=0;points=[];fontStyle=0" parent="GeI4wZPfEz42wUWC54lK-4" vertex="1" connectable="0">
          <mxGeometry x="-0.7057" relative="1" as="geometry">
            <mxPoint x="-7" y="-34" as="offset" />
          </mxGeometry>
        </mxCell>
        <mxCell id="GeI4wZPfEz42wUWC54lK-10" value="" style="endArrow=async;html=1;endFill=1;fontStyle=0;exitX=0;exitY=0.75;exitDx=0;exitDy=0;entryX=1;entryY=0.5;entryDx=0;entryDy=0;" parent="1" source="x58oY4TgvYuZlQ18G-Yt-35" target="GcOCYpmFMNabENArMYts-39" edge="1">
          <mxGeometry width="50" height="50" relative="1" as="geometry">
            <mxPoint x="370" y="275" as="sourcePoint" />
            <mxPoint x="175" y="234" as="targetPoint" />
            <Array as="points">
              <mxPoint x="330" y="305" />
              <mxPoint x="330" y="390" />
            </Array>
          </mxGeometry>
        </mxCell>
        <mxCell id="GeI4wZPfEz42wUWC54lK-11" value="0..*" style="edgeLabel;html=1;align=center;verticalAlign=middle;resizable=0;points=[];fontStyle=0" parent="GeI4wZPfEz42wUWC54lK-10" vertex="1" connectable="0">
          <mxGeometry x="0.6272" relative="1" as="geometry">
            <mxPoint x="-41" y="-10" as="offset" />
          </mxGeometry>
        </mxCell>
        <mxCell id="GeI4wZPfEz42wUWC54lK-12" value="1" style="edgeLabel;html=1;align=center;verticalAlign=middle;resizable=0;points=[];fontStyle=0" parent="GeI4wZPfEz42wUWC54lK-10" vertex="1" connectable="0">
          <mxGeometry x="-0.7057" relative="1" as="geometry">
            <mxPoint x="28" y="9" as="offset" />
          </mxGeometry>
        </mxCell>
        <mxCell id="bSlkkaULo5ZqBv0GWyKj-6" value="" style="endArrow=none;html=1;endFill=0;fontStyle=0;exitX=0;exitY=0.75;exitDx=0;exitDy=0;entryX=1;entryY=0.5;entryDx=0;entryDy=0;" edge="1" parent="1" source="x58oY4TgvYuZlQ18G-Yt-39" target="GcOCYpmFMNabENArMYts-39">
          <mxGeometry width="50" height="50" relative="1" as="geometry">
            <mxPoint x="380" y="500" as="sourcePoint" />
            <mxPoint x="320" y="370" as="targetPoint" />
            <Array as="points">
              <mxPoint x="330" y="360" />
              <mxPoint x="330" y="390" />
            </Array>
          </mxGeometry>
        </mxCell>
        <mxCell id="bSlkkaULo5ZqBv0GWyKj-8" value="1" style="edgeLabel;html=1;align=center;verticalAlign=middle;resizable=0;points=[];fontStyle=0" vertex="1" connectable="0" parent="bSlkkaULo5ZqBv0GWyKj-6">
          <mxGeometry x="-0.7057" relative="1" as="geometry">
            <mxPoint x="19" y="10" as="offset" />
          </mxGeometry>
        </mxCell>
        <mxCell id="bSlkkaULo5ZqBv0GWyKj-15" value="" style="endArrow=async;html=1;endFill=1;fontStyle=0;entryX=1;entryY=0.5;entryDx=0;entryDy=0;exitX=0.25;exitY=1;exitDx=0;exitDy=0;" edge="1" parent="1" source="x58oY4TgvYuZlQ18G-Yt-41" target="44-xXmvqAvaM7QKxlZ_v-4">
          <mxGeometry width="50" height="50" relative="1" as="geometry">
            <mxPoint x="310" y="220" as="sourcePoint" />
            <mxPoint x="180" y="320" as="targetPoint" />
            <Array as="points">
              <mxPoint x="320" y="250" />
            </Array>
          </mxGeometry>
        </mxCell>
        <mxCell id="bSlkkaULo5ZqBv0GWyKj-16" value="0..*" style="edgeLabel;html=1;align=center;verticalAlign=middle;resizable=0;points=[];fontStyle=0" vertex="1" connectable="0" parent="bSlkkaULo5ZqBv0GWyKj-15">
          <mxGeometry x="0.6272" relative="1" as="geometry">
            <mxPoint x="-33" y="-10" as="offset" />
          </mxGeometry>
        </mxCell>
        <mxCell id="bSlkkaULo5ZqBv0GWyKj-20" value="" style="endArrow=none;html=1;endFill=0;fontStyle=0;exitX=0;exitY=0.75;exitDx=0;exitDy=0;entryX=1;entryY=0.5;entryDx=0;entryDy=0;" edge="1" parent="1" source="bSlkkaULo5ZqBv0GWyKj-1" target="GcOCYpmFMNabENArMYts-39">
          <mxGeometry width="50" height="50" relative="1" as="geometry">
            <mxPoint x="380" y="370" as="sourcePoint" />
            <mxPoint x="320" y="380" as="targetPoint" />
            <Array as="points">
              <mxPoint x="330" y="420" />
              <mxPoint x="330" y="390" />
            </Array>
          </mxGeometry>
        </mxCell>
        <mxCell id="bSlkkaULo5ZqBv0GWyKj-21" value="1" style="edgeLabel;html=1;align=center;verticalAlign=middle;resizable=0;points=[];fontStyle=0" vertex="1" connectable="0" parent="bSlkkaULo5ZqBv0GWyKj-20">
          <mxGeometry x="-0.7057" relative="1" as="geometry">
            <mxPoint x="19" y="10" as="offset" />
          </mxGeometry>
        </mxCell>
        <mxCell id="bSlkkaULo5ZqBv0GWyKj-18" value="" style="endArrow=async;html=1;endFill=1;fontStyle=0;exitX=0.25;exitY=1;exitDx=0;exitDy=0;" edge="1" parent="1" source="x58oY4TgvYuZlQ18G-Yt-41" target="44-xXmvqAvaM7QKxlZ_v-2">
          <mxGeometry width="50" height="50" relative="1" as="geometry">
            <mxPoint x="315" y="170" as="sourcePoint" />
            <mxPoint x="175" y="183" as="targetPoint" />
            <Array as="points">
              <mxPoint x="320" y="190" />
            </Array>
          </mxGeometry>
        </mxCell>
        <mxCell id="bSlkkaULo5ZqBv0GWyKj-19" value="0..*" style="edgeLabel;html=1;align=center;verticalAlign=middle;resizable=0;points=[];fontStyle=0" vertex="1" connectable="0" parent="bSlkkaULo5ZqBv0GWyKj-18">
          <mxGeometry x="0.6272" relative="1" as="geometry">
            <mxPoint x="-22" y="-10" as="offset" />
          </mxGeometry>
        </mxCell>
      </root>
    </mxGraphModel>
  </diagram>
</mxfile>
